<svg xmlns="http://www.w3.org/2000/svg" xmlns:xlink="http://www.w3.org/1999/xlink" version="1.1" width="256" height="256" viewBox="0 0 256 256" xml:space="preserve">
<desc>Created with Fabric.js 1.7.22</desc>
<defs>
</defs>
<g transform="translate(128 128) scale(0.72 0.72)" style="">
	<g style="stroke: none; stroke-width: 0; stroke-dasharray: none; stroke-linecap: butt; stroke-linejoin: miter; stroke-miterlimit: 10; fill: none; fill-rule: nonzero; opacity: 1;" transform="translate(-175.05 -175.05000000000004) scale(3.89 3.89)" >
	<path d="M 38.908 65.455 H 7.218 c -1.104 0 -2 -0.896 -2 -2 V 38.817 c 0 -1.104 0.896 -2 2 -2 h 31.69 c 1.104 0 2 0.896 2 2 v 24.638 C 40.908 64.56 40.013 65.455 38.908 65.455 z M 9.218 61.455 h 27.69 V 40.817 H 9.218 V 61.455 z" style="stroke: none; stroke-width: 1; stroke-dasharray: none; stroke-linecap: butt; stroke-linejoin: miter; stroke-miterlimit: 10; fill: rgb(0,0,0); fill-rule: nonzero; opacity: 1;" transform=" matrix(1 0 0 1 0 0) " stroke-linecap="round" />
	<path d="M 82.782 40.911 H 48.227 c -1.104 0 -2 -0.896 -2 -2 s 0.896 -2 2 -2 h 34.556 c 1.104 0 2 0.896 2 2 S 83.887 40.911 82.782 40.911 z" style="stroke: none; stroke-width: 1; stroke-dasharray: none; stroke-linecap: butt; stroke-linejoin: miter; stroke-miterlimit: 10; fill: rgb(0,0,0); fill-rule: nonzero; opacity: 1;" transform=" matrix(1 0 0 1 0 0) " stroke-linecap="round" />
	<path d="M 82.782 53.183 H 48.227 c -1.104 0 -2 -0.896 -2 -2 s 0.896 -2 2 -2 h 34.556 c 1.104 0 2 0.896 2 2 S 83.887 53.183 82.782 53.183 z" style="stroke: none; stroke-width: 1; stroke-dasharray: none; stroke-linecap: butt; stroke-linejoin: miter; stroke-miterlimit: 10; fill: rgb(0,0,0); fill-rule: nonzero; opacity: 1;" transform=" matrix(1 0 0 1 0 0) " stroke-linecap="round" />
	<path d="M 82.782 65.455 H 48.227 c -1.104 0 -2 -0.896 -2 -2 s 0.896 -2 2 -2 h 34.556 c 1.104 0 2 0.896 2 2 S 83.887 65.455 82.782 65.455 z" style="stroke: none; stroke-width: 1; stroke-dasharray: none; stroke-linecap: butt; stroke-linejoin: miter; stroke-miterlimit: 10; fill: rgb(0,0,0); fill-rule: nonzero; opacity: 1;" transform=" matrix(1 0 0 1 0 0) " stroke-linecap="round" />
	<path d="M 82.782 77.728 H 7.218 c -1.104 0 -2 -0.896 -2 -2 s 0.896 -2 2 -2 h 75.564 c 1.104 0 2 0.896 2 2 S 83.887 77.728 82.782 77.728 z" style="stroke: none; stroke-width: 1; stroke-dasharray: none; stroke-linecap: butt; stroke-linejoin: miter; stroke-miterlimit: 10; fill: rgb(0,0,0); fill-rule: nonzero; opacity: 1;" transform=" matrix(1 0 0 1 0 0) " stroke-linecap="round" />
	<path d="M 82.782 90 H 7.218 c -1.104 0 -2 -0.896 -2 -2 s 0.896 -2 2 -2 h 75.564 c 1.104 0 2 0.896 2 2 S 83.887 90 82.782 90 z" style="stroke: none; stroke-width: 1; stroke-dasharray: none; stroke-linecap: butt; stroke-linejoin: miter; stroke-miterlimit: 10; fill: rgb(0,0,0); fill-rule: nonzero; opacity: 1;" transform=" matrix(1 0 0 1 0 0) " stroke-linecap="round" />
	<path d="M 82.782 28.638 H 7.218 c -1.104 0 -2 -0.896 -2 -2 V 2 c 0 -1.104 0.896 -2 2 -2 h 75.564 c 1.104 0 2 0.896 2 2 v 24.638 C 84.782 27.743 83.887 28.638 82.782 28.638 z M 9.218 24.638 h 71.564 V 4 H 9.218 V 24.638 z" style="stroke: none; stroke-width: 1; stroke-dasharray: none; stroke-linecap: butt; stroke-linejoin: miter; stroke-miterlimit: 10; fill: rgb(0,0,0); fill-rule: nonzero; opacity: 1;" transform=" matrix(1 0 0 1 0 0) " stroke-linecap="round" />
</g>
</g>
</svg>