<svg xmlns="http://www.w3.org/2000/svg" xmlns:xlink="http://www.w3.org/1999/xlink" version="1.1" width="256" height="256" viewBox="0 0 256 256" xml:space="preserve">
<desc>Created with Fabric.js 1.7.22</desc>
<defs>
</defs>
<g transform="translate(128 128) scale(0.72 0.72)" style="">
	<g style="stroke: none; stroke-width: 0; stroke-dasharray: none; stroke-linecap: butt; stroke-linejoin: miter; stroke-miterlimit: 10; fill: none; fill-rule: nonzero; opacity: 1;" transform="translate(-175.05 -175.05000000000004) scale(3.89 3.89)" >
	<path d="M 83.92 90 H 6.08 c -1.85 0 -3.354 -1.505 -3.354 -3.354 V 3.354 C 2.726 1.504 4.23 0 6.08 0 h 77.84 c 1.85 0 3.354 1.504 3.354 3.354 v 83.292 C 87.273 88.495 85.77 90 83.92 90 z M 6.08 2 C 5.333 2 4.726 2.607 4.726 3.354 v 83.292 C 4.726 87.393 5.333 88 6.08 88 h 77.84 c 0.746 0 1.354 -0.607 1.354 -1.354 V 3.354 C 85.273 2.607 84.666 2 83.92 2 H 6.08 z" style="stroke: none; stroke-width: 1; stroke-dasharray: none; stroke-linecap: butt; stroke-linejoin: miter; stroke-miterlimit: 10; fill: rgb(0,0,0); fill-rule: nonzero; opacity: 1;" transform=" matrix(1 0 0 1 0 0) " stroke-linecap="round" />
	<path d="M 86.273 15.688 H 3.726 c -0.552 0 -1 -0.448 -1 -1 V 3.354 C 2.726 1.504 4.23 0 6.08 0 h 77.84 c 1.85 0 3.354 1.504 3.354 3.354 v 11.333 C 87.273 15.24 86.826 15.688 86.273 15.688 z M 4.726 13.688 h 80.547 V 3.354 C 85.273 2.607 84.666 2 83.92 2 H 6.08 C 5.333 2 4.726 2.607 4.726 3.354 V 13.688 z" style="stroke: none; stroke-width: 1; stroke-dasharray: none; stroke-linecap: butt; stroke-linejoin: miter; stroke-miterlimit: 10; fill: rgb(0,0,0); fill-rule: nonzero; opacity: 1;" transform=" matrix(1 0 0 1 0 0) " stroke-linecap="round" />
	<path d="M 71.743 8.844 H 39.164 c -0.552 0 -1 -0.448 -1 -1 s 0.448 -1 1 -1 h 32.579 c 0.553 0 1 0.448 1 1 S 72.296 8.844 71.743 8.844 z" style="stroke: none; stroke-width: 1; stroke-dasharray: none; stroke-linecap: butt; stroke-linejoin: miter; stroke-miterlimit: 10; fill: rgb(0,0,0); fill-rule: nonzero; opacity: 1;" transform=" matrix(1 0 0 1 0 0) " stroke-linecap="round" />
	<path d="M 29.976 8.844 h -2.916 c -0.552 0 -1 -0.448 -1 -1 s 0.448 -1 1 -1 h 2.916 c 0.552 0 1 0.448 1 1 S 30.528 8.844 29.976 8.844 z" style="stroke: none; stroke-width: 1; stroke-dasharray: none; stroke-linecap: butt; stroke-linejoin: miter; stroke-miterlimit: 10; fill: rgb(0,0,0); fill-rule: nonzero; opacity: 1;" transform=" matrix(1 0 0 1 0 0) " stroke-linecap="round" />
	<path d="M 21.241 8.844 h -2.915 c -0.552 0 -1 -0.448 -1 -1 s 0.448 -1 1 -1 h 2.915 c 0.552 0 1 0.448 1 1 S 21.793 8.844 21.241 8.844 z" style="stroke: none; stroke-width: 1; stroke-dasharray: none; stroke-linecap: butt; stroke-linejoin: miter; stroke-miterlimit: 10; fill: rgb(0,0,0); fill-rule: nonzero; opacity: 1;" transform=" matrix(1 0 0 1 0 0) " stroke-linecap="round" />
	<path d="M 12.506 8.844 H 9.59 c -0.552 0 -1 -0.448 -1 -1 s 0.448 -1 1 -1 h 2.916 c 0.552 0 1 0.448 1 1 S 13.058 8.844 12.506 8.844 z" style="stroke: none; stroke-width: 1; stroke-dasharray: none; stroke-linecap: butt; stroke-linejoin: miter; stroke-miterlimit: 10; fill: rgb(0,0,0); fill-rule: nonzero; opacity: 1;" transform=" matrix(1 0 0 1 0 0) " stroke-linecap="round" />
	<path d="M 79.717 8.844 h -2.915 c -0.553 0 -1 -0.448 -1 -1 s 0.447 -1 1 -1 h 2.915 c 0.553 0 1 0.448 1 1 S 80.27 8.844 79.717 8.844 z" style="stroke: none; stroke-width: 1; stroke-dasharray: none; stroke-linecap: butt; stroke-linejoin: miter; stroke-miterlimit: 10; fill: rgb(0,0,0); fill-rule: nonzero; opacity: 1;" transform=" matrix(1 0 0 1 0 0) " stroke-linecap="round" />
	<path d="M 43.466 57.697 H 13.236 c -2.18 0 -3.953 -1.773 -3.953 -3.953 V 27.137 c 0 -2.18 1.773 -3.953 3.953 -3.953 h 30.229 c 2.18 0 3.953 1.773 3.953 3.953 v 26.607 C 47.419 55.924 45.646 57.697 43.466 57.697 z M 13.236 25.184 c -1.077 0 -1.953 0.876 -1.953 1.953 v 26.607 c 0 1.077 0.876 1.953 1.953 1.953 h 30.229 c 1.077 0 1.953 -0.876 1.953 -1.953 V 27.137 c 0 -1.077 -0.876 -1.953 -1.953 -1.953 H 13.236 z" style="stroke: none; stroke-width: 1; stroke-dasharray: none; stroke-linecap: butt; stroke-linejoin: miter; stroke-miterlimit: 10; fill: rgb(0,0,0); fill-rule: nonzero; opacity: 1;" transform=" matrix(1 0 0 1 0 0) " stroke-linecap="round" />
	<path d="M 79.717 33.284 H 54.032 c -0.553 0 -1 -0.448 -1 -1 s 0.447 -1 1 -1 h 25.685 c 0.553 0 1 0.448 1 1 S 80.27 33.284 79.717 33.284 z" style="stroke: none; stroke-width: 1; stroke-dasharray: none; stroke-linecap: butt; stroke-linejoin: miter; stroke-miterlimit: 10; fill: rgb(0,0,0); fill-rule: nonzero; opacity: 1;" transform=" matrix(1 0 0 1 0 0) " stroke-linecap="round" />
	<path d="M 79.717 25.184 H 54.032 c -0.553 0 -1 -0.448 -1 -1 s 0.447 -1 1 -1 h 25.685 c 0.553 0 1 0.448 1 1 S 80.27 25.184 79.717 25.184 z" style="stroke: none; stroke-width: 1; stroke-dasharray: none; stroke-linecap: butt; stroke-linejoin: miter; stroke-miterlimit: 10; fill: rgb(0,0,0); fill-rule: nonzero; opacity: 1;" transform=" matrix(1 0 0 1 0 0) " stroke-linecap="round" />
	<path d="M 79.717 41.383 H 54.032 c -0.553 0 -1 -0.448 -1 -1 s 0.447 -1 1 -1 h 25.685 c 0.553 0 1 0.448 1 1 S 80.27 41.383 79.717 41.383 z" style="stroke: none; stroke-width: 1; stroke-dasharray: none; stroke-linecap: butt; stroke-linejoin: miter; stroke-miterlimit: 10; fill: rgb(0,0,0); fill-rule: nonzero; opacity: 1;" transform=" matrix(1 0 0 1 0 0) " stroke-linecap="round" />
	<path d="M 79.717 49.482 H 54.032 c -0.553 0 -1 -0.447 -1 -1 s 0.447 -1 1 -1 h 25.685 c 0.553 0 1 0.447 1 1 S 80.27 49.482 79.717 49.482 z" style="stroke: none; stroke-width: 1; stroke-dasharray: none; stroke-linecap: butt; stroke-linejoin: miter; stroke-miterlimit: 10; fill: rgb(0,0,0); fill-rule: nonzero; opacity: 1;" transform=" matrix(1 0 0 1 0 0) " stroke-linecap="round" />
	<path d="M 79.717 57.582 H 54.032 c -0.553 0 -1 -0.447 -1 -1 s 0.447 -1 1 -1 h 25.685 c 0.553 0 1 0.447 1 1 S 80.27 57.582 79.717 57.582 z" style="stroke: none; stroke-width: 1; stroke-dasharray: none; stroke-linecap: butt; stroke-linejoin: miter; stroke-miterlimit: 10; fill: rgb(0,0,0); fill-rule: nonzero; opacity: 1;" transform=" matrix(1 0 0 1 0 0) " stroke-linecap="round" />
	<path d="M 43.466 57.697 H 13.236 c -2.18 0 -3.953 -1.773 -3.953 -3.953 V 50.14 c 0 -0.286 0.122 -0.558 0.336 -0.748 l 9.417 -8.364 c 0.408 -0.362 1.031 -0.331 1.4 0.071 l 6.339 6.895 l 12.085 -10.305 c 0.413 -0.353 1.031 -0.311 1.393 0.092 l 6.909 7.689 c 0.165 0.184 0.256 0.422 0.256 0.668 v 7.605 C 47.419 55.924 45.646 57.697 43.466 57.697 z M 11.283 50.589 v 3.155 c 0 1.077 0.876 1.953 1.953 1.953 h 30.229 c 1.077 0 1.953 -0.876 1.953 -1.953 v -7.223 l -6.001 -6.679 L 27.341 50.14 c -0.409 0.349 -1.022 0.312 -1.385 -0.084 l -6.326 -6.88 L 11.283 50.589 z" style="stroke: none; stroke-width: 1; stroke-dasharray: none; stroke-linecap: butt; stroke-linejoin: miter; stroke-miterlimit: 10; fill: rgb(0,0,0); fill-rule: nonzero; opacity: 1;" transform=" matrix(1 0 0 1 0 0) " stroke-linecap="round" />
	<path d="M 50.335 81.235 H 38.972 c -2.223 0 -4.031 -1.809 -4.031 -4.031 v -8.872 c 0 -2.223 1.809 -4.031 4.031 -4.031 h 11.363 c 2.223 0 4.031 1.809 4.031 4.031 v 8.872 C 54.366 79.427 52.558 81.235 50.335 81.235 z M 38.972 66.301 c -1.12 0 -2.031 0.911 -2.031 2.031 v 8.872 c 0 1.12 0.911 2.031 2.031 2.031 h 11.363 c 1.12 0 2.031 -0.911 2.031 -2.031 v -8.872 c 0 -1.12 -0.911 -2.031 -2.031 -2.031 H 38.972 z" style="stroke: none; stroke-width: 1; stroke-dasharray: none; stroke-linecap: butt; stroke-linejoin: miter; stroke-miterlimit: 10; fill: rgb(0,0,0); fill-rule: nonzero; opacity: 1;" transform=" matrix(1 0 0 1 0 0) " stroke-linecap="round" />
	<path d="M 23.984 81.235 H 12.622 c -2.223 0 -4.031 -1.809 -4.031 -4.031 v -8.872 c 0 -2.223 1.809 -4.031 4.031 -4.031 h 11.362 c 2.223 0 4.031 1.809 4.031 4.031 v 8.872 C 28.015 79.427 26.207 81.235 23.984 81.235 z M 12.622 66.301 c -1.12 0 -2.031 0.911 -2.031 2.031 v 8.872 c 0 1.12 0.911 2.031 2.031 2.031 h 11.362 c 1.12 0 2.031 -0.911 2.031 -2.031 v -8.872 c 0 -1.12 -0.911 -2.031 -2.031 -2.031 H 12.622 z" style="stroke: none; stroke-width: 1; stroke-dasharray: none; stroke-linecap: butt; stroke-linejoin: miter; stroke-miterlimit: 10; fill: rgb(0,0,0); fill-rule: nonzero; opacity: 1;" transform=" matrix(1 0 0 1 0 0) " stroke-linecap="round" />
	<path d="M 76.686 81.235 H 65.323 c -2.223 0 -4.031 -1.809 -4.031 -4.031 v -8.872 c 0 -2.223 1.809 -4.031 4.031 -4.031 h 11.362 c 2.223 0 4.031 1.809 4.031 4.031 v 8.872 C 80.717 79.427 78.908 81.235 76.686 81.235 z M 65.323 66.301 c -1.12 0 -2.031 0.911 -2.031 2.031 v 8.872 c 0 1.12 0.911 2.031 2.031 2.031 h 11.362 c 1.12 0 2.031 -0.911 2.031 -2.031 v -8.872 c 0 -1.12 -0.911 -2.031 -2.031 -2.031 H 65.323 z" style="stroke: none; stroke-width: 1; stroke-dasharray: none; stroke-linecap: butt; stroke-linejoin: miter; stroke-miterlimit: 10; fill: rgb(0,0,0); fill-rule: nonzero; opacity: 1;" transform=" matrix(1 0 0 1 0 0) " stroke-linecap="round" />
</g>
</g>
</svg>