<svg xmlns="http://www.w3.org/2000/svg" xmlns:xlink="http://www.w3.org/1999/xlink" version="1.1" width="256" height="256" viewBox="0 0 256 256" xml:space="preserve">
<desc>Created with Fabric.js 1.7.22</desc>
<defs>
</defs>
<g transform="translate(128 128) scale(0.72 0.72)" style="">
	<g style="stroke: none; stroke-width: 0; stroke-dasharray: none; stroke-linecap: butt; stroke-linejoin: miter; stroke-miterlimit: 10; fill: none; fill-rule: nonzero; opacity: 1;" transform="translate(-175.05 -175.05000000000004) scale(3.89 3.89)" >
	<path d="M 88 73.337 H 72.362 V 14.663 c 0 -5.965 -4.854 -10.819 -10.819 -10.819 H 24.142 H 10.819 C 4.854 3.844 0 8.698 0 14.663 c 0 1.104 0.896 2 2 2 h 8.797 v 58.674 c 0 5.965 4.854 10.818 10.819 10.818 h 57.565 C 85.146 86.155 90 81.302 90 75.337 C 90 74.232 89.104 73.337 88 73.337 z M 10.819 7.844 h 13.323 h 29.007 c -1.114 1.37 -1.901 3.016 -2.239 4.819 H 4.299 C 5.156 9.876 7.754 7.844 10.819 7.844 z M 14.797 75.337 V 16.663 h 37.928 c 1.104 0 2 -0.896 2 -2 c 0 -3.76 3.059 -6.819 6.818 -6.819 s 6.819 3.059 6.819 6.819 v 60.674 c 0 2.583 0.913 4.956 2.43 6.818 H 21.616 C 17.856 82.155 14.797 79.097 14.797 75.337 z M 79.181 82.155 c -0.344 0 -0.679 -0.034 -1.009 -0.083 c -0.066 -0.01 -0.133 -0.019 -0.199 -0.03 c -0.316 -0.057 -0.625 -0.134 -0.924 -0.232 c -0.055 -0.018 -0.109 -0.04 -0.164 -0.06 c -0.281 -0.101 -0.554 -0.217 -0.817 -0.353 c -0.031 -0.016 -0.064 -0.029 -0.095 -0.046 c -0.277 -0.149 -0.54 -0.32 -0.793 -0.504 c -0.055 -0.04 -0.109 -0.08 -0.162 -0.121 c -0.246 -0.19 -0.481 -0.394 -0.698 -0.615 c -0.03 -0.03 -0.057 -0.064 -0.086 -0.095 c -0.199 -0.21 -0.384 -0.434 -0.555 -0.668 c -0.031 -0.043 -0.064 -0.083 -0.095 -0.126 c -0.177 -0.254 -0.334 -0.521 -0.476 -0.799 c -0.031 -0.06 -0.059 -0.121 -0.088 -0.182 c -0.136 -0.288 -0.259 -0.583 -0.354 -0.891 c -0.001 -0.004 -0.002 -0.008 -0.003 -0.012 h 13.038 C 84.844 80.124 82.245 82.155 79.181 82.155 z" style="stroke: none; stroke-width: 1; stroke-dasharray: none; stroke-linecap: butt; stroke-linejoin: miter; stroke-miterlimit: 10; fill: rgb(0,0,0); fill-rule: nonzero; opacity: 1;" transform=" matrix(1 0 0 1 0 0) " stroke-linecap="round" />
	<path d="M 51.274 31.015 c 1.188 -1.624 1.302 -3.715 0.295 -5.458 c -1.006 -1.742 -2.875 -2.686 -4.873 -2.472 c -0.443 0.051 -0.85 -0.19 -1.027 -0.593 c -0.812 -1.841 -2.566 -2.984 -4.578 -2.984 s -3.766 1.144 -4.578 2.984 c -0.177 0.402 -0.598 0.637 -1.026 0.593 c -1.997 -0.216 -3.868 0.729 -4.874 2.472 s -0.893 3.834 0.295 5.458 v 0 c 0.26 0.354 0.26 0.831 0 1.186 c -1.188 1.623 -1.302 3.714 -0.296 5.457 c 0.73 1.263 1.915 2.1 3.273 2.387 v 11.121 c 0 1.012 0.598 1.931 1.522 2.341 c 0.333 0.147 0.687 0.22 1.037 0.22 c 0.624 0 1.239 -0.227 1.718 -0.66 l 2.978 -2.69 l 2.977 2.688 c 0.75 0.68 1.832 0.853 2.756 0.442 s 1.522 -1.329 1.522 -2.341 V 40.019 c 1.316 -0.306 2.463 -1.129 3.175 -2.361 c 1.007 -1.743 0.894 -3.833 -0.295 -5.457 C 51.015 31.846 51.015 31.37 51.274 31.015 z M 34.135 28.652 c -0.349 -0.477 -0.157 -0.924 -0.059 -1.094 s 0.395 -0.56 0.978 -0.496 c 2.188 0.238 4.235 -0.952 5.119 -2.956 c 0.238 -0.541 0.721 -0.599 0.918 -0.599 s 0.68 0.058 0.918 0.599 c 0.884 2.004 2.946 3.19 5.119 2.955 c 0.584 -0.065 0.879 0.325 0.978 0.496 s 0.29 0.618 -0.059 1.095 c -1.295 1.768 -1.295 4.143 -0.001 5.911 c 0.35 0.477 0.158 0.924 0.06 1.095 s -0.398 0.555 -0.978 0.496 c -2.164 -0.234 -4.235 0.95 -5.119 2.956 c -0.238 0.541 -0.721 0.599 -0.918 0.599 s -0.68 -0.058 -0.918 -0.598 c -0.809 -1.835 -2.601 -2.986 -4.569 -2.986 c -0.182 0 -0.366 0.01 -0.55 0.03 c -0.583 0.065 -0.879 -0.325 -0.978 -0.496 c -0.099 -0.17 -0.29 -0.618 0.059 -1.094 C 35.43 32.795 35.43 30.42 34.135 28.652 z M 42.858 46.537 c -0.98 -0.886 -2.457 -0.886 -3.435 -0.002 l -1.538 1.39 v -5.374 c 0.876 0.735 1.992 1.157 3.206 1.157 c 1.258 0 2.415 -0.447 3.304 -1.232 v 5.449 L 42.858 46.537 z" style="stroke: none; stroke-width: 1; stroke-dasharray: none; stroke-linecap: butt; stroke-linejoin: miter; stroke-miterlimit: 10; fill: rgb(0,0,0); fill-rule: nonzero; opacity: 1;" transform=" matrix(1 0 0 1 0 0) " stroke-linecap="round" />
	<circle cx="41.09" cy="31.4" r="3.42" style="stroke: none; stroke-width: 1; stroke-dasharray: none; stroke-linecap: butt; stroke-linejoin: miter; stroke-miterlimit: 10; fill: rgb(0,0,0); fill-rule: nonzero; opacity: 1;" transform="  matrix(1 0 0 1 0 0) "/>
	<path d="M 58.153 64.063 H 23.165 c -1.104 0 -2 -0.896 -2 -2 s 0.896 -2 2 -2 h 34.988 c 1.104 0 2 0.896 2 2 S 59.258 64.063 58.153 64.063 z" style="stroke: none; stroke-width: 1; stroke-dasharray: none; stroke-linecap: butt; stroke-linejoin: miter; stroke-miterlimit: 10; fill: rgb(0,0,0); fill-rule: nonzero; opacity: 1;" transform=" matrix(1 0 0 1 0 0) " stroke-linecap="round" />
	<path d="M 58.153 73.837 H 45 c -1.104 0 -2 -0.896 -2 -2 s 0.896 -2 2 -2 h 13.153 c 1.104 0 2 0.896 2 2 S 59.258 73.837 58.153 73.837 z" style="stroke: none; stroke-width: 1; stroke-dasharray: none; stroke-linecap: butt; stroke-linejoin: miter; stroke-miterlimit: 10; fill: rgb(0,0,0); fill-rule: nonzero; opacity: 1;" transform=" matrix(1 0 0 1 0 0) " stroke-linecap="round" />
</g>
</g>
</svg>