<svg xmlns="http://www.w3.org/2000/svg" xmlns:xlink="http://www.w3.org/1999/xlink" version="1.1" width="256" height="256" viewBox="0 0 256 256" xml:space="preserve">
<desc>Created with Fabric.js 1.7.22</desc>
<defs>
</defs>
<g transform="translate(128 128) scale(0.72 0.72)" style="">
	<g style="stroke: none; stroke-width: 0; stroke-dasharray: none; stroke-linecap: butt; stroke-linejoin: miter; stroke-miterlimit: 10; fill: none; fill-rule: nonzero; opacity: 1;" transform="translate(-175.05 -175.05000000000004) scale(3.89 3.89)" >
	<path d="M 80.575 64.83 H 9.425 c -1.104 0 -2 -0.896 -2 -2 V 19.628 c 0 -3.792 3.085 -6.876 6.876 -6.876 h 61.396 c 3.792 0 6.877 3.084 6.877 6.876 V 62.83 C 82.575 63.935 81.68 64.83 80.575 64.83 z M 11.425 60.83 h 67.15 V 19.628 c 0 -1.586 -1.291 -2.876 -2.877 -2.876 H 14.302 c -1.586 0 -2.876 1.29 -2.876 2.876 V 60.83 z" style="stroke: none; stroke-width: 1; stroke-dasharray: none; stroke-linecap: butt; stroke-linejoin: miter; stroke-miterlimit: 10; fill: rgb(0,0,0); fill-rule: nonzero; opacity: 1;" transform=" matrix(1 0 0 1 0 0) " stroke-linecap="round" />
	<path d="M 77.582 75.248 H 12.417 C 5.57 75.248 0 69.678 0 62.83 c 0 -1.104 0.896 -2 2 -2 h 86 c 1.104 0 2 0.896 2 2 C 90 69.678 84.43 75.248 77.582 75.248 z M 4.24 64.83 c 0.9 3.68 4.225 6.418 8.177 6.418 h 65.165 c 3.953 0 7.278 -2.738 8.178 -6.418 H 4.24 z" style="stroke: none; stroke-width: 1; stroke-dasharray: none; stroke-linecap: butt; stroke-linejoin: miter; stroke-miterlimit: 10; fill: rgb(0,0,0); fill-rule: nonzero; opacity: 1;" transform=" matrix(1 0 0 1 0 0) " stroke-linecap="round" />
	<path d="M 47.958 70.873 h -5.916 c -3.202 0 -5.806 -2.604 -5.806 -5.807 c 0 -1.104 0.896 -2 2 -2 s 2 0.896 2 2 c 0 0.996 0.81 1.807 1.806 1.807 h 5.916 c 0.996 0 1.807 -0.811 1.807 -1.807 c 0 -1.104 0.896 -2 2 -2 s 2 0.896 2 2 C 53.765 68.269 51.16 70.873 47.958 70.873 z" style="stroke: none; stroke-width: 1; stroke-dasharray: none; stroke-linecap: butt; stroke-linejoin: miter; stroke-miterlimit: 10; fill: rgb(0,0,0); fill-rule: nonzero; opacity: 1;" transform=" matrix(1 0 0 1 0 0) " stroke-linecap="round" />
	<path d="M 51.765 67.066 c -1.104 0 -2 -0.896 -2 -2 V 64.83 h -9.529 v 0.236 c 0 1.104 -0.896 2 -2 2 s -2 -0.896 -2 -2 V 62.83 c 0 -1.104 0.896 -2 2 -2 h 13.529 c 1.104 0 2 0.896 2 2 v 2.236 C 53.765 66.171 52.869 67.066 51.765 67.066 z" style="stroke: none; stroke-width: 1; stroke-dasharray: none; stroke-linecap: butt; stroke-linejoin: miter; stroke-miterlimit: 10; fill: rgb(0,0,0); fill-rule: nonzero; opacity: 1;" transform=" matrix(1 0 0 1 0 0) " stroke-linecap="round" />
	<path d="M 63.166 52.176 c -1.104 0 -2 -0.896 -2 -2 V 31.677 c 0 -1.104 0.896 -2 2 -2 s 2 0.896 2 2 v 18.499 C 65.166 51.28 64.271 52.176 63.166 52.176 z" style="stroke: none; stroke-width: 1; stroke-dasharray: none; stroke-linecap: butt; stroke-linejoin: miter; stroke-miterlimit: 10; fill: rgb(0,0,0); fill-rule: nonzero; opacity: 1;" transform=" matrix(1 0 0 1 0 0) " stroke-linecap="round" />
	<path d="M 56.332 49.59 c -1.104 0 -2 -0.896 -2 -2 V 36.188 c -1.103 -0.516 -4.373 -1.25 -9.332 -1.25 c -4.958 0 -8.229 0.734 -9.332 1.25 V 47.59 c 0 1.104 -0.896 2 -2 2 s -2 -0.896 -2 -2 V 35.523 c 0 -3.99 8.353 -4.585 13.332 -4.585 c 4.979 0 13.332 0.596 13.332 4.585 V 47.59 C 58.332 48.694 57.437 49.59 56.332 49.59 z" style="stroke: none; stroke-width: 1; stroke-dasharray: none; stroke-linecap: butt; stroke-linejoin: miter; stroke-miterlimit: 10; fill: rgb(0,0,0); fill-rule: nonzero; opacity: 1;" transform=" matrix(1 0 0 1 0 0) " stroke-linecap="round" />
	<path d="M 45 52.176 c -4.979 0 -13.332 -0.596 -13.332 -4.586 c 0 -3.989 8.353 -4.585 13.332 -4.585 c 4.979 0 13.332 0.596 13.332 4.585 C 58.332 51.58 49.979 52.176 45 52.176 z M 54.65 48.442 h 0.01 H 54.65 z M 38.008 47.59 c 1.656 0.322 4.021 0.586 6.992 0.586 c 2.971 0 5.336 -0.264 6.992 -0.586 c -1.656 -0.321 -4.021 -0.585 -6.992 -0.585 S 39.664 47.269 38.008 47.59 z" style="stroke: none; stroke-width: 1; stroke-dasharray: none; stroke-linecap: butt; stroke-linejoin: miter; stroke-miterlimit: 10; fill: rgb(0,0,0); fill-rule: nonzero; opacity: 1;" transform=" matrix(1 0 0 1 0 0) " stroke-linecap="round" />
	<path d="M 56.332 40.857 c -0.841 0 -1.623 -0.534 -1.9 -1.376 c -0.345 -1.049 0.227 -2.179 1.276 -2.524 l 8.559 -2.813 l -17.585 -5.778 c -1.084 -0.357 -2.28 -0.357 -3.363 0 l -17.585 5.778 l 8.559 2.813 c 1.049 0.345 1.621 1.475 1.275 2.524 c -0.345 1.049 -1.475 1.621 -2.524 1.275 L 20.973 36.79 c -1.145 -0.375 -1.915 -1.439 -1.916 -2.645 c 0 -1.207 0.769 -2.27 1.916 -2.647 l 21.097 -6.932 c 1.89 -0.621 3.971 -0.621 5.86 0 l 21.098 6.932 c 1.146 0.377 1.916 1.441 1.916 2.647 c -0.001 1.206 -0.771 2.269 -1.916 2.646 l -12.071 3.966 C 56.749 40.825 56.539 40.857 56.332 40.857 z" style="stroke: none; stroke-width: 1; stroke-dasharray: none; stroke-linecap: butt; stroke-linejoin: miter; stroke-miterlimit: 10; fill: rgb(0,0,0); fill-rule: nonzero; opacity: 1;" transform=" matrix(1 0 0 1 0 0) " stroke-linecap="round" />
</g>
</g>
</svg>