<svg xmlns="http://www.w3.org/2000/svg" xmlns:xlink="http://www.w3.org/1999/xlink" version="1.1" width="256" height="256" viewBox="0 0 256 256" xml:space="preserve">
<desc>Created with Fabric.js 1.7.22</desc>
<defs>
</defs>
<g transform="translate(128 128) scale(0.72 0.72)" style="">
	<g style="stroke: none; stroke-width: 0; stroke-dasharray: none; stroke-linecap: butt; stroke-linejoin: miter; stroke-miterlimit: 10; fill: none; fill-rule: nonzero; opacity: 1;" transform="translate(-175.05 -175.05000000000004) scale(3.89 3.89)" >
	<path d="M 83.035 90 H 6.965 c -2.372 0 -4.301 -1.93 -4.301 -4.301 V 4.301 C 2.664 1.929 4.593 0 6.965 0 h 76.07 c 2.371 0 4.301 1.929 4.301 4.301 v 81.398 C 87.336 88.07 85.406 90 83.035 90 z M 6.965 4 C 6.799 4 6.664 4.135 6.664 4.301 v 81.398 C 6.664 85.865 6.799 86 6.965 86 h 76.07 c 0.166 0 0.301 -0.135 0.301 -0.301 V 4.301 C 83.336 4.135 83.201 4 83.035 4 H 6.965 z" style="stroke: none; stroke-width: 1; stroke-dasharray: none; stroke-linecap: butt; stroke-linejoin: miter; stroke-miterlimit: 10; fill: rgb(0,0,0); fill-rule: nonzero; opacity: 1;" transform=" matrix(1 0 0 1 0 0) " stroke-linecap="round" />
	<path d="M 85.336 17.376 H 4.664 c -1.104 0 -2 -0.896 -2 -2 V 4.301 C 2.664 1.929 4.593 0 6.965 0 h 76.07 c 2.371 0 4.301 1.929 4.301 4.301 v 11.076 C 87.336 16.481 86.44 17.376 85.336 17.376 z M 6.664 13.376 h 76.672 V 4.301 C 83.336 4.135 83.201 4 83.035 4 H 6.965 C 6.799 4 6.664 4.135 6.664 4.301 V 13.376 z" style="stroke: none; stroke-width: 1; stroke-dasharray: none; stroke-linecap: butt; stroke-linejoin: miter; stroke-miterlimit: 10; fill: rgb(0,0,0); fill-rule: nonzero; opacity: 1;" transform=" matrix(1 0 0 1 0 0) " stroke-linecap="round" />
	<path d="M 69.135 10.688 H 39.296 c -1.104 0 -2 -0.896 -2 -2 s 0.896 -2 2 -2 h 29.838 c 1.104 0 2 0.896 2 2 S 70.239 10.688 69.135 10.688 z" style="stroke: none; stroke-width: 1; stroke-dasharray: none; stroke-linecap: butt; stroke-linejoin: miter; stroke-miterlimit: 10; fill: rgb(0,0,0); fill-rule: nonzero; opacity: 1;" transform=" matrix(1 0 0 1 0 0) " stroke-linecap="round" />
	<path d="M 30.317 10.688 h -2.849 c -1.104 0 -2 -0.896 -2 -2 s 0.896 -2 2 -2 h 2.849 c 1.104 0 2 0.896 2 2 S 31.422 10.688 30.317 10.688 z" style="stroke: none; stroke-width: 1; stroke-dasharray: none; stroke-linecap: butt; stroke-linejoin: miter; stroke-miterlimit: 10; fill: rgb(0,0,0); fill-rule: nonzero; opacity: 1;" transform=" matrix(1 0 0 1 0 0) " stroke-linecap="round" />
	<path d="M 21.781 10.688 h -2.849 c -1.104 0 -2 -0.896 -2 -2 s 0.896 -2 2 -2 h 2.849 c 1.104 0 2 0.896 2 2 S 22.885 10.688 21.781 10.688 z" style="stroke: none; stroke-width: 1; stroke-dasharray: none; stroke-linecap: butt; stroke-linejoin: miter; stroke-miterlimit: 10; fill: rgb(0,0,0); fill-rule: nonzero; opacity: 1;" transform=" matrix(1 0 0 1 0 0) " stroke-linecap="round" />
	<path d="M 13.244 10.688 h -2.849 c -1.104 0 -2 -0.896 -2 -2 s 0.896 -2 2 -2 h 2.849 c 1.104 0 2 0.896 2 2 S 14.349 10.688 13.244 10.688 z" style="stroke: none; stroke-width: 1; stroke-dasharray: none; stroke-linecap: butt; stroke-linejoin: miter; stroke-miterlimit: 10; fill: rgb(0,0,0); fill-rule: nonzero; opacity: 1;" transform=" matrix(1 0 0 1 0 0) " stroke-linecap="round" />
	<path d="M 78.928 10.688 h -2.849 c -1.104 0 -2 -0.896 -2 -2 s 0.896 -2 2 -2 h 2.849 c 1.104 0 2 0.896 2 2 S 80.032 10.688 78.928 10.688 z" style="stroke: none; stroke-width: 1; stroke-dasharray: none; stroke-linecap: butt; stroke-linejoin: miter; stroke-miterlimit: 10; fill: rgb(0,0,0); fill-rule: nonzero; opacity: 1;" transform=" matrix(1 0 0 1 0 0) " stroke-linecap="round" />
	<path d="M 78.928 34.573 H 53.827 c -1.104 0 -2 -0.896 -2 -2 s 0.896 -2 2 -2 h 25.101 c 1.104 0 2 0.896 2 2 S 80.032 34.573 78.928 34.573 z" style="stroke: none; stroke-width: 1; stroke-dasharray: none; stroke-linecap: butt; stroke-linejoin: miter; stroke-miterlimit: 10; fill: rgb(0,0,0); fill-rule: nonzero; opacity: 1;" transform=" matrix(1 0 0 1 0 0) " stroke-linecap="round" />
	<path d="M 78.928 26.657 H 53.827 c -1.104 0 -2 -0.896 -2 -2 s 0.896 -2 2 -2 h 25.101 c 1.104 0 2 0.896 2 2 S 80.032 26.657 78.928 26.657 z" style="stroke: none; stroke-width: 1; stroke-dasharray: none; stroke-linecap: butt; stroke-linejoin: miter; stroke-miterlimit: 10; fill: rgb(0,0,0); fill-rule: nonzero; opacity: 1;" transform=" matrix(1 0 0 1 0 0) " stroke-linecap="round" />
	<path d="M 78.928 42.488 H 53.827 c -1.104 0 -2 -0.896 -2 -2 s 0.896 -2 2 -2 h 25.101 c 1.104 0 2 0.896 2 2 S 80.032 42.488 78.928 42.488 z" style="stroke: none; stroke-width: 1; stroke-dasharray: none; stroke-linecap: butt; stroke-linejoin: miter; stroke-miterlimit: 10; fill: rgb(0,0,0); fill-rule: nonzero; opacity: 1;" transform=" matrix(1 0 0 1 0 0) " stroke-linecap="round" />
	<path d="M 78.928 50.403 H 53.827 c -1.104 0 -2 -0.896 -2 -2 s 0.896 -2 2 -2 h 25.101 c 1.104 0 2 0.896 2 2 S 80.032 50.403 78.928 50.403 z" style="stroke: none; stroke-width: 1; stroke-dasharray: none; stroke-linecap: butt; stroke-linejoin: miter; stroke-miterlimit: 10; fill: rgb(0,0,0); fill-rule: nonzero; opacity: 1;" transform=" matrix(1 0 0 1 0 0) " stroke-linecap="round" />
	<path d="M 78.928 58.319 H 53.827 c -1.104 0 -2 -0.896 -2 -2 s 0.896 -2 2 -2 h 25.101 c 1.104 0 2 0.896 2 2 S 80.032 58.319 78.928 58.319 z" style="stroke: none; stroke-width: 1; stroke-dasharray: none; stroke-linecap: butt; stroke-linejoin: miter; stroke-miterlimit: 10; fill: rgb(0,0,0); fill-rule: nonzero; opacity: 1;" transform=" matrix(1 0 0 1 0 0) " stroke-linecap="round" />
	<path d="M 18.079 40.687 c 0.816 -0.725 2.062 -0.662 2.8 0.142 l 6.231 6.776 l 12.348 -10.53 c 0.826 -0.705 2.061 -0.621 2.786 0.186 l 5.143 5.725 V 27.543 c 0 -2.143 -1.743 -3.886 -3.886 -3.886 H 13.958 c -2.143 0 -3.886 1.743 -3.886 3.886 v 20.254 L 18.079 40.687 z" style="stroke: none; stroke-width: 1; stroke-dasharray: none; stroke-linecap: butt; stroke-linejoin: miter; stroke-miterlimit: 10; fill: rgb(0,0,0); fill-rule: nonzero; opacity: 1;" transform=" matrix(1 0 0 1 0 0) " stroke-linecap="round" />
	<path d="M 46.715 48.223 l -6.144 -6.839 L 28.239 51.898 c -0.817 0.699 -2.041 0.623 -2.77 -0.168 l -6.204 -6.747 l -8.68 7.708 c -0.157 0.139 -0.332 0.242 -0.513 0.324 v 0.53 c 0 2.144 1.743 3.887 3.886 3.887 h 29.542 c 2.143 0 3.886 -1.743 3.886 -3.887 v -4.836 C 47.138 48.598 46.908 48.438 46.715 48.223 z" style="stroke: none; stroke-width: 1; stroke-dasharray: none; stroke-linecap: butt; stroke-linejoin: miter; stroke-miterlimit: 10; fill: rgb(0,0,0); fill-rule: nonzero; opacity: 1;" transform=" matrix(1 0 0 1 0 0) " stroke-linecap="round" />
	<path d="M 50.214 79.434 H 39.109 c -1.636 0 -2.962 -1.326 -2.962 -2.962 v -8.671 c 0 -1.636 1.326 -2.962 2.962 -2.962 h 11.104 c 1.636 0 2.962 1.326 2.962 2.962 v 8.671 C 53.176 78.108 51.85 79.434 50.214 79.434 z" style="stroke: none; stroke-width: 1; stroke-dasharray: none; stroke-linecap: butt; stroke-linejoin: miter; stroke-miterlimit: 10; fill: rgb(0,0,0); fill-rule: nonzero; opacity: 1;" transform=" matrix(1 0 0 1 0 0) " stroke-linecap="round" />
	<path d="M 50.214 80.435 H 39.109 c -2.185 0 -3.962 -1.777 -3.962 -3.963 v -8.67 c 0 -2.186 1.777 -3.963 3.962 -3.963 h 11.104 c 2.185 0 3.962 1.777 3.962 3.963 v 8.67 C 54.176 78.657 52.398 80.435 50.214 80.435 z M 39.109 65.839 c -1.082 0 -1.962 0.881 -1.962 1.963 v 8.67 c 0 1.082 0.88 1.963 1.962 1.963 h 11.104 c 1.082 0 1.962 -0.881 1.962 -1.963 v -8.67 c 0 -1.082 -0.88 -1.963 -1.962 -1.963 H 39.109 z" style="stroke: none; stroke-width: 1; stroke-dasharray: none; stroke-linecap: butt; stroke-linejoin: miter; stroke-miterlimit: 10; fill: rgb(0,0,0); fill-rule: nonzero; opacity: 1;" transform=" matrix(1 0 0 1 0 0) " stroke-linecap="round" />
	<path d="M 24.462 79.434 H 13.357 c -1.636 0 -2.962 -1.326 -2.962 -2.962 v -8.671 c 0 -1.636 1.326 -2.962 2.962 -2.962 h 11.104 c 1.636 0 2.962 1.326 2.962 2.962 v 8.671 C 27.424 78.108 26.098 79.434 24.462 79.434 z" style="stroke: none; stroke-width: 1; stroke-dasharray: none; stroke-linecap: butt; stroke-linejoin: miter; stroke-miterlimit: 10; fill: rgb(0,0,0); fill-rule: nonzero; opacity: 1;" transform=" matrix(1 0 0 1 0 0) " stroke-linecap="round" />
	<path d="M 24.461 80.435 H 13.357 c -2.185 0 -3.962 -1.777 -3.962 -3.963 v -8.67 c 0 -2.186 1.777 -3.963 3.962 -3.963 h 11.104 c 2.185 0 3.962 1.777 3.962 3.963 v 8.67 C 28.424 78.657 26.646 80.435 24.461 80.435 z M 13.357 65.839 c -1.082 0 -1.962 0.881 -1.962 1.963 v 8.67 c 0 1.082 0.88 1.963 1.962 1.963 h 11.104 c 1.082 0 1.962 -0.881 1.962 -1.963 v -8.67 c 0 -1.082 -0.88 -1.963 -1.962 -1.963 H 13.357 z" style="stroke: none; stroke-width: 1; stroke-dasharray: none; stroke-linecap: butt; stroke-linejoin: miter; stroke-miterlimit: 10; fill: rgb(0,0,0); fill-rule: nonzero; opacity: 1;" transform=" matrix(1 0 0 1 0 0) " stroke-linecap="round" />
	<path d="M 75.965 79.434 H 64.861 c -1.636 0 -2.962 -1.326 -2.962 -2.962 v -8.671 c 0 -1.636 1.326 -2.962 2.962 -2.962 h 11.104 c 1.636 0 2.962 1.326 2.962 2.962 v 8.671 C 78.928 78.108 77.601 79.434 75.965 79.434 z" style="stroke: none; stroke-width: 1; stroke-dasharray: none; stroke-linecap: butt; stroke-linejoin: miter; stroke-miterlimit: 10; fill: rgb(0,0,0); fill-rule: nonzero; opacity: 1;" transform=" matrix(1 0 0 1 0 0) " stroke-linecap="round" />
	<path d="M 75.966 80.435 H 64.861 c -2.186 0 -3.963 -1.777 -3.963 -3.963 v -8.67 c 0 -2.186 1.777 -3.963 3.963 -3.963 h 11.104 c 2.185 0 3.962 1.777 3.962 3.963 v 8.67 C 79.928 78.657 78.15 80.435 75.966 80.435 z M 64.861 65.839 c -1.082 0 -1.963 0.881 -1.963 1.963 v 8.67 c 0 1.082 0.881 1.963 1.963 1.963 h 11.104 c 1.082 0 1.962 -0.881 1.962 -1.963 v -8.67 c 0 -1.082 -0.88 -1.963 -1.962 -1.963 H 64.861 z" style="stroke: none; stroke-width: 1; stroke-dasharray: none; stroke-linecap: butt; stroke-linejoin: miter; stroke-miterlimit: 10; fill: rgb(0,0,0); fill-rule: nonzero; opacity: 1;" transform=" matrix(1 0 0 1 0 0) " stroke-linecap="round" />
</g>
</g>
</svg>