<svg xmlns="http://www.w3.org/2000/svg" xmlns:xlink="http://www.w3.org/1999/xlink" version="1.1" width="256" height="256" viewBox="0 0 256 256" xml:space="preserve">
<desc>Created with Fabric.js 1.7.22</desc>
<defs>
</defs>
<g transform="translate(128 128) scale(0.72 0.72)" style="">
	<g style="stroke: none; stroke-width: 0; stroke-dasharray: none; stroke-linecap: butt; stroke-linejoin: miter; stroke-miterlimit: 10; fill: none; fill-rule: nonzero; opacity: 1;" transform="translate(-175.05 -175.05000000000004) scale(3.89 3.89)" >
	<path d="M 57.212 90 H 32.788 c -1.104 0 -2 -0.896 -2 -2 V 75.633 c 0 -1.104 0.896 -2 2 -2 h 24.424 c 1.104 0 2 0.896 2 2 V 88 C 59.212 89.104 58.316 90 57.212 90 z M 34.788 86 h 20.424 v -8.367 H 34.788 V 86 z" style="stroke: none; stroke-width: 1; stroke-dasharray: none; stroke-linecap: butt; stroke-linejoin: miter; stroke-miterlimit: 10; fill: rgb(0,0,0); fill-rule: nonzero; opacity: 1;" transform=" matrix(1 0 0 1 0 0) " stroke-linecap="round" />
	<path d="M 45 65.015 c -0.404 0 -0.809 -0.122 -1.154 -0.367 l -12.212 -8.633 c -0.53 -0.374 -0.846 -0.983 -0.846 -1.633 s 0.315 -1.259 0.846 -1.633 l 12.212 -8.633 c 0.691 -0.489 1.617 -0.489 2.309 0 l 12.212 8.633 c 0.53 0.375 0.846 0.983 0.846 1.633 s -0.315 1.258 -0.846 1.633 l -12.212 8.633 C 45.809 64.893 45.404 65.015 45 65.015 z M 36.252 54.382 L 45 60.565 l 8.747 -6.184 L 45 48.198 L 36.252 54.382 z" style="stroke: none; stroke-width: 1; stroke-dasharray: none; stroke-linecap: butt; stroke-linejoin: miter; stroke-miterlimit: 10; fill: rgb(0,0,0); fill-rule: nonzero; opacity: 1;" transform=" matrix(1 0 0 1 0 0) " stroke-linecap="round" />
	<path d="M 70.054 56.382 H 57.212 c -1.104 0 -2 -0.896 -2 -2 s 0.896 -2 2 -2 h 10.842 V 28.947 H 57.212 c -1.104 0 -2 -0.896 -2 -2 s 0.896 -2 2 -2 h 12.842 c 1.104 0 2 0.896 2 2 v 27.435 C 72.054 55.486 71.158 56.382 70.054 56.382 z" style="stroke: none; stroke-width: 1; stroke-dasharray: none; stroke-linecap: butt; stroke-linejoin: miter; stroke-miterlimit: 10; fill: rgb(0,0,0); fill-rule: nonzero; opacity: 1;" transform=" matrix(1 0 0 1 0 0) " stroke-linecap="round" />
	<path d="M 32.788 83.816 H 19.946 c -1.104 0 -2 -0.896 -2 -2 V 54.382 c 0 -1.104 0.896 -2 2 -2 h 12.841 c 1.104 0 2 0.896 2 2 s -0.896 2 -2 2 H 21.946 v 23.435 h 10.841 c 1.104 0 2 0.896 2 2 S 33.892 83.816 32.788 83.816 z" style="stroke: none; stroke-width: 1; stroke-dasharray: none; stroke-linecap: butt; stroke-linejoin: miter; stroke-miterlimit: 10; fill: rgb(0,0,0); fill-rule: nonzero; opacity: 1;" transform=" matrix(1 0 0 1 0 0) " stroke-linecap="round" />
	<path d="M 57.212 35.13 H 32.788 c -1.104 0 -2 -0.896 -2 -2 V 2 c 0 -1.104 0.896 -2 2 -2 h 16.201 c 0.53 0 1.039 0.211 1.414 0.586 l 8.224 8.224 c 0.375 0.375 0.586 0.884 0.586 1.414 V 33.13 C 59.212 34.235 58.316 35.13 57.212 35.13 z M 34.788 31.13 h 20.424 V 11.052 L 48.16 4 H 34.788 V 31.13 z" style="stroke: none; stroke-width: 1; stroke-dasharray: none; stroke-linecap: butt; stroke-linejoin: miter; stroke-miterlimit: 10; fill: rgb(0,0,0); fill-rule: nonzero; opacity: 1;" transform=" matrix(1 0 0 1 0 0) " stroke-linecap="round" />
	<path d="M 51.155 14.569 h -4.513 c -1.104 0 -2 -0.896 -2 -2 V 8.057 c 0 -1.104 0.896 -2 2 -2 s 2 0.896 2 2 v 2.512 h 2.513 c 1.104 0 2 0.896 2 2 S 52.26 14.569 51.155 14.569 z" style="stroke: none; stroke-width: 1; stroke-dasharray: none; stroke-linecap: butt; stroke-linejoin: miter; stroke-miterlimit: 10; fill: rgb(0,0,0); fill-rule: nonzero; opacity: 1;" transform=" matrix(1 0 0 1 0 0) " stroke-linecap="round" />
</g>
</g>
</svg>